<mxfile host="app.diagrams.net" modified="2023-07-09T23:35:37.891Z" agent="Mozilla/5.0 (Windows NT 10.0; Win64; x64) AppleWebKit/537.36 (KHTML, like Gecko) Chrome/114.0.0.0 Safari/537.36" version="21.6.1" etag="LdToCH7YToV4nUJUd03P" type="device">
  <diagram id="VRLP0N9ztwp5fcxafZ_A" name="PÃ¡gina-1">
    <mxGraphModel dx="3444" dy="1671" grid="1" gridSize="10" guides="1" tooltips="1" connect="1" arrows="1" fold="1" page="0" pageScale="1" pageWidth="827" pageHeight="1169" background="none" math="0" shadow="0">
      <root>
        <mxCell id="0" />
        <mxCell id="1" parent="0" />
        <mxCell id="node1" value="&lt;p style=&quot;margin:0px;margin-top:4px;text-align:center;&quot;&gt;&lt;i&gt;&amp;lt;&amp;lt;interface&amp;gt;&amp;gt;&lt;/i&gt;&lt;br/&gt;&lt;b&gt;Initializable&lt;/b&gt;&lt;/p&gt;&lt;hr size=&quot;1&quot;/&gt;&lt;p style=&quot;margin:0 0 0 4px;line-height:1.6;&quot;&gt;+ initialize(URL, ResourceBundle): void&lt;/p&gt;" style="verticalAlign=top;align=left;overflow=fill;fontSize=14;fontFamily=Helvetica;html=1;rounded=0;shadow=0;comic=0;labelBackgroundColor=none;strokeWidth=1;" parent="1" vertex="1">
          <mxGeometry x="-23" y="-14" width="238" height="68" as="geometry" />
        </mxCell>
        <mxCell id="node0" value="&lt;p style=&quot;margin:0px;margin-top:4px;text-align:center;&quot;&gt;&lt;b&gt;SalesEmployeeController&lt;/b&gt;&lt;/p&gt;&lt;hr size=&quot;1&quot;/&gt;&lt;p style=&quot;margin:0 0 0 4px;line-height:1.6;&quot;&gt;~ seatNumbers: List&amp;lt;Integer&amp;gt;&lt;br/&gt;~ flightService: FlightServiceImpl&lt;br/&gt;+ createNewPassengerContent: VBox&lt;br/&gt;- departure: TableColumn&amp;lt;FlightDataSaver, LocalTime&amp;gt;&lt;br/&gt;- lastName: TextField&lt;br/&gt;- seat: TextField&lt;br/&gt;- arrival: TableColumn&amp;lt;FlightDataSaver, LocalTime&amp;gt;&lt;br/&gt;- numberOfPassengers: ComboBox&amp;lt;String&amp;gt;&lt;br/&gt;- passportNumber: TextField&lt;br/&gt;- SearchBookingButton: Button&lt;br/&gt;~ selectedFlight: FlightDataSaver&lt;br/&gt;~ bookingManager: BookingManagerImpl&lt;br/&gt;~ passengerData: PassengerData&lt;br/&gt;+ PassportText: TextField&lt;br/&gt;- airplaneRegistrationNumber: TableColumn&amp;lt;FlightDataSaver, String&amp;gt;&lt;br/&gt;- departureAirport: TableColumn&amp;lt;FlightDataSaver, String&amp;gt;&lt;br/&gt;- flightNumberColumn: TableColumn&amp;lt;FlightDataSaver, String&amp;gt;&lt;br/&gt;+ bookingRemove: VBox&lt;br/&gt;+ foodOption: CheckBox&lt;br/&gt;+ legroomOption: CheckBox&lt;br/&gt;- firstName: TextField&lt;br/&gt;- arrivalAirport: TableColumn&amp;lt;FlightDataSaver, String&amp;gt;&lt;br/&gt;~ seatData: SeatData&lt;br/&gt;+ searchBookingContent: VBox&lt;br/&gt;~ flightTableView: TableView&amp;lt;FlightDataSaver&amp;gt;&lt;br/&gt;- departureDate: TableColumn&amp;lt;FlightDataSaver, LocalDate&amp;gt;&lt;br/&gt;~ selectedPassengers: String&lt;br/&gt;+ luggageOption: CheckBox&lt;br/&gt;+ createNewBookingContent: VBox&lt;br/&gt;- nrOfPassengers: String[]&lt;br/&gt;+ seatNumber: Label&lt;br/&gt;- arrivalDate: TableColumn&amp;lt;FlightDataSaver, LocalDate&amp;gt;&lt;br/&gt;~ alert: Alert&lt;br/&gt;~ contentsFlight: ObservableList&amp;lt;FlightDataSaver&amp;gt;&lt;br/&gt;+ removeTheBooking: Button&lt;/p&gt;&lt;hr size=&quot;1&quot;/&gt;&lt;p style=&quot;margin:0 0 0 4px;line-height:1.6;&quot;&gt;+ showCreateNewBooking(): void&lt;br/&gt;+ onCreateBookingButtonClick(ActionEvent): void&lt;br/&gt;+ onRemoveBooking(ActionEvent): void&lt;br/&gt;+ onBackButtonClick(ActionEvent): void&lt;br/&gt;+ onSearchBookingButtonClick(ActionEvent): void&lt;br/&gt;+ onSearchButtonClick(ActionEvent): void&lt;br/&gt;+ initialize(URL, ResourceBundle): void&lt;br/&gt;+ getAllFLightsOnTable(): void&lt;br/&gt;+ onShowBooking(ActionEvent): void&lt;br/&gt;+ onCreatePassengerButtonClick(ActionEvent): void&lt;/p&gt;" style="verticalAlign=top;align=left;overflow=fill;fontSize=14;fontFamily=Helvetica;html=1;rounded=0;shadow=0;comic=0;labelBackgroundColor=none;strokeWidth=1;" parent="1" vertex="1">
          <mxGeometry x="-107" y="101" width="407" height="1069" as="geometry" />
        </mxCell>
        <mxCell id="edge0" value="" style="html=1;rounded=1;edgeStyle=orthogonalEdgeStyle;dashed=1;startArrow=none;endArrow=block;endSize=12;strokeColor=#008200;exitX=0.500;exitY=0.000;exitDx=0;exitDy=0;entryX=0.500;entryY=1.001;entryDx=0;entryDy=0;" parent="1" source="node0" target="node1" edge="1">
          <mxGeometry width="50" height="50" relative="1" as="geometry">
            <Array as="points" />
          </mxGeometry>
        </mxCell>
        <mxCell id="G1MX8cNomu7-tQfcH3g1-1" value="&lt;p style=&quot;margin:0px;margin-top:4px;text-align:center;&quot;&gt;&lt;i&gt;&amp;lt;&amp;lt;interface&amp;gt;&amp;gt;&lt;/i&gt;&lt;br/&gt;&lt;b&gt;BookingManager&lt;/b&gt;&lt;/p&gt;&lt;hr size=&quot;1&quot;/&gt;&lt;p style=&quot;margin:0 0 0 4px;line-height:1.6;&quot;&gt;+ addBooking(BookingData): void&lt;br/&gt;+ isBookingExists(String, LocalDate): boolean&lt;br/&gt;+ canDeletePassenger(PassengerData): boolean&lt;br/&gt;+ calculatePrice(boolean, boolean, boolean, int): int&lt;br/&gt;+ removeBooking(PassengerData): void&lt;br/&gt;+ addPassengersAndSeat(SeatData, PassengerData): void&lt;br/&gt;+ isSeatNrAvailable(int, String): boolean&lt;br/&gt;+ isBookingExistsForPassenger(String, String, String): boolean&lt;br/&gt;+ isSeatAvailable(String, int): boolean&lt;br/&gt;+ generateSeatNumber(int, String): int&lt;br/&gt;+ getNrOfTotalSeatsForSelectedFlight(String): int&lt;/p&gt;" style="verticalAlign=top;align=left;overflow=fill;fontSize=14;fontFamily=Helvetica;html=1;rounded=0;shadow=0;comic=0;labelBackgroundColor=none;strokeWidth=1;" vertex="1" parent="1">
          <mxGeometry x="510" y="-15" width="359" height="274" as="geometry" />
        </mxCell>
        <mxCell id="G1MX8cNomu7-tQfcH3g1-2" value="&lt;p style=&quot;margin:0px;margin-top:4px;text-align:center;&quot;&gt;&lt;b&gt;BookingManagerImpl&lt;/b&gt;&lt;/p&gt;&lt;hr size=&quot;1&quot;/&gt;&lt;p style=&quot;margin:0 0 0 4px;line-height:1.6;&quot;&gt;- bookingStorageService: BookingStorageService&lt;/p&gt;&lt;hr size=&quot;1&quot;/&gt;&lt;p style=&quot;margin:0 0 0 4px;line-height:1.6;&quot;&gt;+ getNrOfTotalSeatsForSelectedFlight(String): int&lt;br/&gt;+ isBookingExists(String, LocalDate): boolean&lt;br/&gt;+ addPassengersAndSeat(SeatData, PassengerData): void&lt;br/&gt;+ addBooking(BookingData): void&lt;br/&gt;+ generateSeatNumber(int, String): int&lt;br/&gt;+ getLastBookingId(): int&lt;br/&gt;+ isSeatNrAvailable(int, String): boolean&lt;br/&gt;+ isBookingExistsForPassenger(String, String, String): boolean&lt;br/&gt;+ getBookingStorageService(): BookingStorageService&lt;br/&gt;+ removeBooking(PassengerData): void&lt;br/&gt;+ isSeatAvailable(String, int): boolean&lt;br/&gt;+ canDeletePassenger(PassengerData): boolean&lt;br/&gt;+ getBooking(int): BookingData&lt;br/&gt;+ calculatePrice(boolean, boolean, boolean, int): int&lt;/p&gt;" style="verticalAlign=top;align=left;overflow=fill;fontSize=14;fontFamily=Helvetica;html=1;rounded=0;shadow=0;comic=0;labelBackgroundColor=none;strokeWidth=1;" vertex="1" parent="1">
          <mxGeometry x="530" y="330" width="359" height="363" as="geometry" />
        </mxCell>
        <mxCell id="G1MX8cNomu7-tQfcH3g1-3" value="&lt;p style=&quot;margin:0px;margin-top:4px;text-align:center;&quot;&gt;&lt;i&gt;&amp;lt;&amp;lt;interface&amp;gt;&amp;gt;&lt;/i&gt;&lt;br/&gt;&lt;b&gt;BookingStorageService&lt;/b&gt;&lt;/p&gt;&lt;hr size=&quot;1&quot;/&gt;&lt;p style=&quot;margin:0 0 0 4px;line-height:1.6;&quot;&gt;+ getFlightDateByBookingID(int): LocalDate&lt;br/&gt;+ isSeatAvailable(String, int): boolean&lt;br/&gt;+ addBooking(BookingData): void&lt;br/&gt;+ getNrOfTotalSeatsForSelectedFlight(String): int&lt;br/&gt;+ getBooking(int): BookingData&lt;br/&gt;+ removeBooking(PassengerData): void&lt;br/&gt;+ isBookingExists(String, LocalDate): boolean&lt;br/&gt;+ isSeatNrAvailable(int, String): boolean&lt;br/&gt;+ getCountOfBookingsByPassportNumber(String): int&lt;br/&gt;+ getLastBookingID(): int&lt;br/&gt;+ isBookingExistsForPassenger(String, String, String): boolean&lt;br/&gt;+ addPassengerAndSeat(SeatData, PassengerData): void&lt;br/&gt;+ getAllBookings(): List&amp;lt;BookingData&amp;gt;&lt;/p&gt;" style="verticalAlign=top;align=left;overflow=fill;fontSize=14;fontFamily=Helvetica;html=1;rounded=0;shadow=0;comic=0;labelBackgroundColor=none;strokeWidth=1;" vertex="1" parent="1">
          <mxGeometry x="1130" y="-37" width="359" height="318" as="geometry" />
        </mxCell>
        <mxCell id="G1MX8cNomu7-tQfcH3g1-4" value="&lt;p style=&quot;margin:0px;margin-top:4px;text-align:center;&quot;&gt;&lt;b&gt;BookingStorageServiceImpl&lt;/b&gt;&lt;/p&gt;&lt;hr size=&quot;1&quot;/&gt;&lt;p style=&quot;margin:0 0 0 4px;line-height:1.6;&quot;&gt;~ persistenceAPI: PersistenceAPIImpl&lt;/p&gt;&lt;hr size=&quot;1&quot;/&gt;&lt;p style=&quot;margin:0 0 0 4px;line-height:1.6;&quot;&gt;+ getCountOfBookingsByPassportNumber(String): int&lt;br/&gt;+ addPassengerAndSeat(SeatData, PassengerData): void&lt;br/&gt;+ removeBooking(PassengerData): void&lt;br/&gt;+ getBooking(int): BookingData&lt;br/&gt;+ isSeatNrAvailable(int, String): boolean&lt;br/&gt;+ addBooking(BookingData): void&lt;br/&gt;+ getFlightDateByBookingID(int): LocalDate&lt;br/&gt;+ getAllBookings(): List&amp;lt;BookingData&amp;gt;&lt;br/&gt;+ getNrOfTotalSeatsForSelectedFlight(String): int&lt;br/&gt;+ isBookingExists(String, LocalDate): boolean&lt;br/&gt;+ isBookingExistsForPassenger(String, String, String): boolean&lt;br/&gt;+ getLastBookingID(): int&lt;br/&gt;+ isSeatAvailable(String, int): boolean&lt;/p&gt;" style="verticalAlign=top;align=left;overflow=fill;fontSize=14;fontFamily=Helvetica;html=1;rounded=0;shadow=0;comic=0;labelBackgroundColor=none;strokeWidth=1;" vertex="1" parent="1">
          <mxGeometry x="1130" y="352" width="359" height="341" as="geometry" />
        </mxCell>
        <mxCell id="G1MX8cNomu7-tQfcH3g1-5" value="&lt;p style=&quot;margin:0px;margin-top:4px;text-align:center;&quot;&gt;&lt;b&gt;PassengerData&lt;/b&gt;&lt;/p&gt;&lt;hr size=&quot;1&quot;/&gt;&lt;p style=&quot;margin:0 0 0 4px;line-height:1.6;&quot;&gt;- lastName: String&lt;br/&gt;- firstName: String&lt;br/&gt;- passportNumber: String&lt;br/&gt;- bookingID: int&lt;/p&gt;&lt;hr size=&quot;1&quot;/&gt;&lt;p style=&quot;margin:0 0 0 4px;line-height:1.6;&quot;&gt;+ getLastName(): String&lt;br/&gt;+ setBookingID(int): void&lt;br/&gt;+ getFirstName(): String&lt;br/&gt;+ setLastName(String): void&lt;br/&gt;+ getPassportNumber(): String&lt;br/&gt;+ setFirstName(String): void&lt;br/&gt;+ setPassportNumber(String): void&lt;br/&gt;+ getBookingID(): int&lt;/p&gt;" style="verticalAlign=top;align=left;overflow=fill;fontSize=14;fontFamily=Helvetica;html=1;rounded=0;shadow=0;comic=0;labelBackgroundColor=none;strokeWidth=1;" vertex="1" parent="1">
          <mxGeometry x="2000" y="270" width="218" height="297" as="geometry" />
        </mxCell>
        <mxCell id="G1MX8cNomu7-tQfcH3g1-6" value="&lt;p style=&quot;margin:0px;margin-top:4px;text-align:center;&quot;&gt;&lt;b&gt;BookingData&lt;/b&gt;&lt;/p&gt;&lt;hr size=&quot;1&quot;/&gt;&lt;p style=&quot;margin:0 0 0 4px;line-height:1.6;&quot;&gt;- flightNumber: String&lt;br/&gt;- nrOfPassengers: int&lt;br/&gt;- bookingID: int&lt;/p&gt;&lt;hr size=&quot;1&quot;/&gt;&lt;p style=&quot;margin:0 0 0 4px;line-height:1.6;&quot;&gt;+ getFlightNumber(): String&lt;br/&gt;+ getNumberOfPassengers(int): int&lt;br/&gt;+ getBookingID(): int&lt;/p&gt;" style="verticalAlign=top;align=left;overflow=fill;fontSize=14;fontFamily=Helvetica;html=1;rounded=0;shadow=0;comic=0;labelBackgroundColor=none;strokeWidth=1;" vertex="1" parent="1">
          <mxGeometry x="1740" y="270" width="220" height="165" as="geometry" />
        </mxCell>
        <mxCell id="G1MX8cNomu7-tQfcH3g1-7" value="&lt;p style=&quot;margin:0px;margin-top:4px;text-align:center;&quot;&gt;&lt;b&gt;Record&lt;/b&gt;&lt;/p&gt;&lt;hr size=&quot;1&quot;/&gt;&lt;p style=&quot;margin:0 0 0 4px;line-height:1.6;&quot;&gt;+ equals(Object): boolean&lt;br/&gt;+ hashCode(): int&lt;br/&gt;+ toString(): String&lt;/p&gt;" style="verticalAlign=top;align=left;overflow=fill;fontSize=14;fontFamily=Helvetica;html=1;rounded=0;shadow=0;comic=0;labelBackgroundColor=none;strokeWidth=1;" vertex="1" parent="1">
          <mxGeometry x="1900" y="-40" width="172" height="106" as="geometry" />
        </mxCell>
        <mxCell id="G1MX8cNomu7-tQfcH3g1-8" value="&lt;p style=&quot;margin:0px;margin-top:4px;text-align:center;&quot;&gt;&lt;i&gt;&amp;lt;&amp;lt;record&amp;gt;&amp;gt;&lt;/i&gt;&lt;br/&gt;&lt;b&gt;FlightData&lt;/b&gt;&lt;/p&gt;&lt;hr size=&quot;1&quot;/&gt;&lt;p style=&quot;margin:0 0 0 4px;line-height:1.6;&quot;&gt;- departureTime: LocalTime&lt;br/&gt;- arrivalTime: LocalTime&lt;br/&gt;- departureDate: LocalDate&lt;br/&gt;- departureName: AirportData&lt;br/&gt;- gate: int&lt;br/&gt;- flightNumber: String&lt;br/&gt;- arrivalName: AirportData&lt;br/&gt;- arrivalDate: LocalDate&lt;br/&gt;- airplaneRegistrationNumber: AirplaneData&lt;/p&gt;&lt;hr size=&quot;1&quot;/&gt;&lt;p style=&quot;margin:0 0 0 4px;line-height:1.6;&quot;&gt;+ departureAirportName(): String&lt;br/&gt;+ flightNumber(): String&lt;br/&gt;+ arrivalAirportName(): String&lt;br/&gt;+ departureTime(): LocalTime&lt;br/&gt;+ arrivalDate(): LocalDate&lt;br/&gt;+ departureDate(): LocalDate&lt;br/&gt;+ airplaneRegistrationNumber(): AirplaneData&lt;br/&gt;+ departureName(): AirportData&lt;br/&gt;+ getAirplaneRegistrationNumber(): String&lt;br/&gt;+ gate(): int&lt;br/&gt;+ arrivalName(): AirportData&lt;br/&gt;+ arrivalTime(): LocalTime&lt;/p&gt;" style="verticalAlign=top;align=left;overflow=fill;fontSize=14;fontFamily=Helvetica;html=1;rounded=0;shadow=0;comic=0;labelBackgroundColor=none;strokeWidth=1;" vertex="1" parent="1">
          <mxGeometry x="2260" y="105" width="277" height="495" as="geometry" />
        </mxCell>
        <mxCell id="G1MX8cNomu7-tQfcH3g1-9" value="" style="html=1;rounded=1;edgeStyle=orthogonalEdgeStyle;dashed=0;startArrow=none;endArrow=block;endSize=12;strokeColor=#000082;exitX=0.500;exitY=0.000;exitDx=0;exitDy=0;entryX=-0.021;entryY=0.871;entryDx=0;entryDy=0;entryPerimeter=0;" edge="1" parent="1" target="G1MX8cNomu7-tQfcH3g1-7">
          <mxGeometry width="50" height="50" relative="1" as="geometry">
            <Array as="points" />
            <mxPoint x="1900" y="270" as="sourcePoint" />
            <mxPoint x="1900" y="217" as="targetPoint" />
          </mxGeometry>
        </mxCell>
        <mxCell id="G1MX8cNomu7-tQfcH3g1-10" value="" style="html=1;rounded=1;edgeStyle=orthogonalEdgeStyle;dashed=0;startArrow=none;endArrow=block;endSize=12;strokeColor=#000082;exitX=0.500;exitY=0.000;exitDx=0;exitDy=0;entryX=-0.021;entryY=0.871;entryDx=0;entryDy=0;entryPerimeter=0;" edge="1" parent="1">
          <mxGeometry width="50" height="50" relative="1" as="geometry">
            <Array as="points" />
            <mxPoint x="2040.03" y="272" as="sourcePoint" />
            <mxPoint x="2036.03" y="54" as="targetPoint" />
          </mxGeometry>
        </mxCell>
        <mxCell id="G1MX8cNomu7-tQfcH3g1-11" value="" style="html=1;rounded=1;edgeStyle=orthogonalEdgeStyle;dashed=0;startArrow=none;endArrow=block;endSize=12;strokeColor=#000082;exitX=0.500;exitY=0.000;exitDx=0;exitDy=0;entryX=1.001;entryY=0.911;entryDx=0;entryDy=0;entryPerimeter=0;" edge="1" parent="1" target="G1MX8cNomu7-tQfcH3g1-7">
          <mxGeometry width="50" height="50" relative="1" as="geometry">
            <Array as="points" />
            <mxPoint x="2260" y="208" as="sourcePoint" />
            <mxPoint x="2256" y="-10" as="targetPoint" />
          </mxGeometry>
        </mxCell>
        <mxCell id="G1MX8cNomu7-tQfcH3g1-13" value="" style="html=1;rounded=1;edgeStyle=orthogonalEdgeStyle;dashed=1;startArrow=none;endArrow=block;endSize=12;strokeColor=#008200;exitX=0.500;exitY=0.000;exitDx=0;exitDy=0;entryX=0.111;entryY=0.995;entryDx=0;entryDy=0;entryPerimeter=0;" edge="1" parent="1" target="G1MX8cNomu7-tQfcH3g1-1">
          <mxGeometry width="50" height="50" relative="1" as="geometry">
            <Array as="points" />
            <mxPoint x="551" y="330" as="sourcePoint" />
            <mxPoint x="550" y="283" as="targetPoint" />
          </mxGeometry>
        </mxCell>
        <mxCell id="G1MX8cNomu7-tQfcH3g1-14" value="" style="html=1;rounded=1;edgeStyle=orthogonalEdgeStyle;dashed=1;startArrow=none;endArrow=block;endSize=12;strokeColor=#008200;exitX=0.500;exitY=0.000;exitDx=0;exitDy=0;entryX=0.111;entryY=0.995;entryDx=0;entryDy=0;entryPerimeter=0;" edge="1" parent="1">
          <mxGeometry width="50" height="50" relative="1" as="geometry">
            <Array as="points" />
            <mxPoint x="1231" y="352" as="sourcePoint" />
            <mxPoint x="1230" y="280" as="targetPoint" />
          </mxGeometry>
        </mxCell>
        <mxCell id="G1MX8cNomu7-tQfcH3g1-15" value="" style="endArrow=classic;html=1;rounded=0;entryX=0;entryY=0.871;entryDx=0;entryDy=0;entryPerimeter=0;" edge="1" parent="1" target="G1MX8cNomu7-tQfcH3g1-3">
          <mxGeometry width="50" height="50" relative="1" as="geometry">
            <mxPoint x="889" y="485" as="sourcePoint" />
            <mxPoint x="919" y="220" as="targetPoint" />
            <Array as="points">
              <mxPoint x="930" y="485" />
              <mxPoint x="919" y="230" />
            </Array>
          </mxGeometry>
        </mxCell>
        <mxCell id="G1MX8cNomu7-tQfcH3g1-16" value="" style="endArrow=classic;html=1;rounded=0;entryX=-0.015;entryY=0.619;entryDx=0;entryDy=0;entryPerimeter=0;" edge="1" parent="1" target="G1MX8cNomu7-tQfcH3g1-7">
          <mxGeometry width="50" height="50" relative="1" as="geometry">
            <mxPoint x="1489" y="514" as="sourcePoint" />
            <mxPoint x="1760" y="70" as="targetPoint" />
            <Array as="points">
              <mxPoint x="1530" y="514" />
              <mxPoint x="1520" y="20" />
            </Array>
          </mxGeometry>
        </mxCell>
        <mxCell id="G1MX8cNomu7-tQfcH3g1-17" value="" style="endArrow=classic;html=1;rounded=0;entryX=-0.009;entryY=0.075;entryDx=0;entryDy=0;entryPerimeter=0;" edge="1" parent="1" target="G1MX8cNomu7-tQfcH3g1-1">
          <mxGeometry width="50" height="50" relative="1" as="geometry">
            <mxPoint x="300" y="345" as="sourcePoint" />
            <mxPoint x="541" y="100" as="targetPoint" />
            <Array as="points">
              <mxPoint x="341" y="345" />
              <mxPoint x="330" />
            </Array>
          </mxGeometry>
        </mxCell>
      </root>
    </mxGraphModel>
  </diagram>
</mxfile>
